<?xml version="1.0" encoding="utf-8"?>
<!-- Generator: Adobe Illustrator 20.0.0, SVG Export Plug-In . SVG Version: 6.00 Build 0)  -->
<svg version="1.1" id="Warstwa_1" xmlns="http://www.w3.org/2000/svg" xmlns:xlink="http://www.w3.org/1999/xlink" x="0px" y="0px"
	 viewBox="0 0 443.4 104.3" style="enable-background:new 0 0 443.4 104.3;" xml:space="preserve">
<style type="text/css">
	.st0{clip-path:url(#SVGID_2_);fill:#FFFFFF;}
	.st1{clip-path:url(#SVGID_4_);fill:url(#SVGID_5_);}
	.st2{clip-path:url(#SVGID_7_);fill:url(#SVGID_8_);}
	.st3{clip-path:url(#SVGID_10_);fill:url(#SVGID_11_);}
	.st4{clip-path:url(#SVGID_13_);fill:#FFFFFF;}
	.st5{clip-path:url(#SVGID_13_);fill:#10AABD;}
</style>
<g>
	<defs>
		<rect id="SVGID_1_" x="-57.1" y="-479.8" width="595.3" height="841.9"/>
	</defs>
	<clipPath id="SVGID_2_">
		<use xlink:href="#SVGID_1_"  style="overflow:visible;"/>
	</clipPath>
	<path class="st0" d="M136.9,75.9v10.7c0,4.1,1.9,5.8,4.3,5.8c2.8,0,4.5-1.8,4.5-5.8V75.9h2.4v10.6c0,5.6-3,7.9-7.1,7.9
		c-3.8,0-6.7-2.1-6.7-7.7V75.9H136.9z"/>
	<path class="st0" d="M161.2,94V75.9h2.6l6,9.2c1.4,2.1,2.5,4,3.4,5.9l0.1,0c-0.2-2.4-0.3-4.6-0.3-7.4v-7.6h2.3V94h-2.4l-5.9-9.2
		c-1.3-2-2.5-4.1-3.5-6.1l-0.1,0c0.1,2.3,0.2,4.5,0.2,7.5V94H161.2z"/>
	<polygon class="st0" points="188.3,75.9 190.8,75.9 190.8,92.1 198.7,92.1 198.7,94 188.3,94 	"/>
	<rect x="210.3" y="75.9" class="st0" width="2.4" height="18.1"/>
	<path class="st0" d="M241.5,86.1c-0.1-2.5-0.3-5.6-0.3-7.8h-0.1c-0.6,2.1-1.4,4.4-2.4,6.9l-3.3,8.8h-1.8l-3-8.6
		c-0.9-2.6-1.6-4.9-2.2-7h-0.1c-0.1,2.3-0.2,5.3-0.4,8l-0.5,7.8h-2.3l1.3-18.1h3.1l3.2,8.8c0.8,2.2,1.4,4.2,1.9,6.1h0.1
		c0.5-1.8,1.1-3.8,2-6.1l3.3-8.8h3.1l1.2,18.1H242L241.5,86.1z"/>
	<rect x="256.9" y="75.9" class="st0" width="2.4" height="18.1"/>
	<polygon class="st0" points="275.9,77.9 270.3,77.9 270.3,75.9 284.1,75.9 284.1,77.9 278.4,77.9 278.4,94 275.9,94 	"/>
	<polygon class="st0" points="304.7,85.5 297.4,85.5 297.4,92.1 305.5,92.1 305.5,94 295,94 295,75.9 305.1,75.9 305.1,77.9 
		297.4,77.9 297.4,83.6 304.7,83.6 	"/>
	<path class="st0" d="M317.5,76.1c1.5-0.2,3.2-0.4,5.1-0.4c3.5,0,5.9,0.8,7.6,2.3c1.7,1.5,2.6,3.6,2.6,6.5c0,3-0.9,5.4-2.7,7
		c-1.7,1.7-4.6,2.6-8.3,2.6c-1.7,0-3.2-0.1-4.4-0.2V76.1z M319.9,92.2c0.6,0.1,1.5,0.1,2.4,0.1c5.2,0,8-2.8,8-7.7c0-4.3-2.5-7-7.6-7
		c-1.2,0-2.2,0.1-2.8,0.2V92.2z"/>
	<polygon class="st0" points="359,75.9 361.4,75.9 361.4,92.1 369.4,92.1 369.4,94 359,94 	"/>
	<rect x="381" y="75.9" class="st0" width="2.4" height="18.1"/>
	<polygon class="st0" points="396.4,75.9 406.5,75.9 406.5,77.9 398.9,77.9 398.9,83.9 405.9,83.9 405.9,85.8 398.9,85.8 398.9,94 
		396.4,94 	"/>
	<polygon class="st0" points="428.5,85.5 421.2,85.5 421.2,92.1 429.3,92.1 429.3,94 418.8,94 418.8,75.9 428.9,75.9 428.9,77.9 
		421.2,77.9 421.2,83.6 428.5,83.6 	"/>
	<path class="st0" d="M440.5,92.7c0-1,0.7-1.7,1.6-1.7c1,0,1.6,0.7,1.6,1.7c0,0.9-0.6,1.7-1.6,1.7C441.1,94.3,440.5,93.6,440.5,92.7
		 M441.2,88.8l-0.4-12.9h2.7L443,88.8H441.2z"/>
</g>
<g>
	<defs>
		<polygon id="SVGID_3_" points="22.3,14.4 23.9,62.2 53.1,92.7 82.1,79.6 84.4,68.4 76.5,40.4 58.3,21.2 47.1,16.5 		"/>
	</defs>
	<clipPath id="SVGID_4_">
		<use xlink:href="#SVGID_3_"  style="overflow:visible;"/>
	</clipPath>
	
		<linearGradient id="SVGID_5_" gradientUnits="userSpaceOnUse" x1="-57.073" y1="362.106" x2="-56.0737" y2="362.106" gradientTransform="matrix(0 78.3327 -78.3327 0 28418.0625 4485.1025)">
		<stop  offset="0" style="stop-color:#2B3492"/>
		<stop  offset="0.1638" style="stop-color:#2D4098"/>
		<stop  offset="0.5278" style="stop-color:#3256A5"/>
		<stop  offset="0.8193" style="stop-color:#3663AE"/>
		<stop  offset="1" style="stop-color:#3867B1"/>
	</linearGradient>
	<rect x="22.3" y="14.4" class="st1" width="62.1" height="78.3"/>
</g>
<g>
	<defs>
		<polygon id="SVGID_6_" points="76.5,0 76.5,40.4 49.2,40.4 49.2,55.7 61.6,55.7 78.4,73.1 49.2,73.1 49.2,88.7 64.2,104.3 
			102.2,104.3 102.2,0 102.2,0 		"/>
	</defs>
	<clipPath id="SVGID_7_">
		<use xlink:href="#SVGID_6_"  style="overflow:visible;"/>
	</clipPath>
	
		<linearGradient id="SVGID_8_" gradientUnits="userSpaceOnUse" x1="-57.074" y1="362.1029" x2="-56.074" y2="362.1029" gradientTransform="matrix(-36.5469 -100.4119 100.4119 -36.5469 -38349.6563 7609.7476)">
		<stop  offset="0" style="stop-color:#0D638E"/>
		<stop  offset="1" style="stop-color:#7DCCBF"/>
	</linearGradient>
	<polygon class="st2" points="135.8,92.1 96,-17 15.7,12.2 55.4,121.3 	"/>
</g>
<g>
	<defs>
		<polygon id="SVGID_9_" points="0,0 0,0 0,104.1 0,104.1 24.4,104.1 24.4,21.2 58.3,21.2 38,0 		"/>
	</defs>
	<clipPath id="SVGID_10_">
		<use xlink:href="#SVGID_9_"  style="overflow:visible;"/>
	</clipPath>
	
		<linearGradient id="SVGID_11_" gradientUnits="userSpaceOnUse" x1="-57.074" y1="362.1096" x2="-56.074" y2="362.1096" gradientTransform="matrix(-36.2569 -99.6149 99.6149 -36.2569 -38095.4922 7540.0713)">
		<stop  offset="0" style="stop-color:#0D638E"/>
		<stop  offset="1" style="stop-color:#7DCCBF"/>
	</linearGradient>
	<polygon class="st3" points="91.7,91.9 51.5,-18.7 -33.4,12.2 6.8,122.8 	"/>
</g>
<g>
	<defs>
		<rect id="SVGID_12_" x="-57.1" y="-479.8" width="595.3" height="841.9"/>
	</defs>
	<clipPath id="SVGID_13_">
		<use xlink:href="#SVGID_12_"  style="overflow:visible;"/>
	</clipPath>
	<path class="st4" d="M193.1,66.2v-7c-3.6,5.3-7.9,7.9-13,7.9c-3.2,0-5.8-1-7.7-3.1c-1.9-2.1-2.9-4.8-2.9-8.3V28.8h6.7v24.6
		c0,2.8,0.4,4.8,1.2,6c0.8,1.2,2.1,1.8,4,1.8c4.1,0,7.9-2.7,11.6-8.2V28.8h6.7v37.4H193.1z"/>
	<path class="st4" d="M227.3,66.2c-2.1,0.6-3.9,0.9-5.4,0.9c-3.4,0-6.1-1-8-3c-1.9-2-2.9-4.7-2.9-8.2V33.9h-4.6v-5.1h4.6V22l6.7-0.7
		v7.4h9.7v5.1h-9.7v20.7c0,4.9,2.1,7.3,6.3,7.3c0.9,0,2-0.1,3.2-0.4V66.2z"/>
	<path class="st4" d="M257.6,66.2v-7c-3.6,5.3-7.9,7.9-13,7.9c-3.2,0-5.8-1-7.7-3.1c-1.9-2.1-2.9-4.8-2.9-8.3V28.8h6.7v24.6
		c0,2.8,0.4,4.8,1.2,6c0.8,1.2,2.2,1.8,4,1.8c4.1,0,7.9-2.7,11.6-8.2V28.8h6.7v37.4H257.6z"/>
	<path class="st4" d="M275.3,66.2V28.8h6.7v7c2.7-5.2,6.5-7.8,11.6-7.8c0.7,0,1.4,0.1,2.1,0.2v6.4c-1.2-0.4-2.2-0.6-3.1-0.6
		c-4.2,0-7.8,2.5-10.7,7.6v24.6H275.3z"/>
	<path class="st4" d="M328.5,65C324,66.3,320.2,67,317,67c-5.5,0-9.9-1.8-13.4-5.5c-3.4-3.7-5.1-8.4-5.1-14.2
		c0-5.7,1.5-10.3,4.5-13.9c3-3.6,6.9-5.4,11.6-5.4c4.5,0,7.9,1.6,10.4,4.8c2.4,3.2,3.7,7.8,3.7,13.7l0,2.1h-23.3
		c1,8.9,5.3,13.3,12.9,13.3c2.8,0,6.2-0.8,10.3-2.3V65z M305.6,43.5H322c0-6.9-2.6-10.4-7.7-10.4C309.1,33.1,306.2,36.5,305.6,43.5"
		/>
	<polygon class="st5" points="337.3,66.2 337.3,15.2 344.3,15.2 369.7,54.6 369.7,15.2 375.8,15.2 375.8,66.2 368.8,66.2 
		343.4,26.8 343.4,66.2 	"/>
	<path class="st5" d="M415.2,65c-4.5,1.4-8.3,2.1-11.5,2.1c-5.5,0-9.9-1.8-13.4-5.5c-3.4-3.7-5.1-8.4-5.1-14.2
		c0-5.7,1.5-10.3,4.5-13.9c3-3.6,6.9-5.4,11.6-5.4c4.5,0,7.9,1.6,10.4,4.8c2.4,3.2,3.7,7.8,3.7,13.7l0,2.1H392
		c1,8.9,5.3,13.3,12.9,13.3c2.8,0,6.2-0.8,10.3-2.3V65z M392.4,43.5h16.3c0-6.9-2.6-10.4-7.7-10.4C395.8,33.1,392.9,36.5,392.4,43.5
		"/>
	<path class="st5" d="M442.6,66.2c-2.1,0.6-3.9,0.9-5.4,0.9c-3.4,0-6.1-1-8-3c-1.9-2-2.9-4.7-2.9-8.2V33.9h-4.6v-5.1h4.6V22l6.7-0.7
		v7.4h9.7v5.1h-9.7v20.7c0,4.9,2.1,7.3,6.3,7.3c0.9,0,2-0.1,3.2-0.4V66.2z"/>
	<polygon class="st4" points="454.3,25.3 454.3,18.7 451.6,18.7 451.6,17.9 458,17.9 458,18.7 455.3,18.7 455.3,25.3 	"/>
	<polygon class="st4" points="454.3,25.3 454.3,18.7 451.6,18.7 451.6,17.9 458,17.9 458,18.7 455.3,18.7 455.3,25.3 	"/>
	<polygon class="st4" points="459.1,25.3 459.1,17.9 460.5,17.9 462.6,23.7 464.7,17.9 466,17.9 466,25.3 465,25.3 465,19.3 
		463,24.8 462,24.8 460,19.3 460,25.3 	"/>
	<polygon class="st4" points="459.1,25.3 459.1,17.9 460.5,17.9 462.6,23.7 464.7,17.9 466,17.9 466,25.3 465,25.3 465,19.3 
		463,24.8 462,24.8 460,19.3 460,25.3 	"/>
	<polygon class="st4" points="134.8,66.2 134.8,15.2 163,15.2 163,20.6 141.9,20.6 141.9,37.7 159.6,37.7 159.6,43 141.9,43 
		141.9,66.2 	"/>
</g>
</svg>
