<?xml version="1.0" encoding="utf-8"?>
<!-- Generator: Adobe Illustrator 21.1.0, SVG Export Plug-In . SVG Version: 6.00 Build 0)  -->
<svg version="1.1" id="Шар_1" xmlns="http://www.w3.org/2000/svg" xmlns:xlink="http://www.w3.org/1999/xlink" x="0px" y="0px"
	 viewBox="0 0 332.2 78.1" style="enable-background:new 0 0 332.2 78.1;" xml:space="preserve">
<style type="text/css">
	.st0{fill:none;stroke:#3C3C3B;stroke-width:1.7297;stroke-miterlimit:10;}
	.st1{fill:url(#SVGID_1_);}
	.st2{fill:url(#SVGID_2_);}
	.st3{fill:#1D1D1B;}
	.st4{fill:#13ABBE;}
	.st5{fill:#6F6F6E;}
	.st6{fill:#1D1D1B;stroke:#1D1D1B;stroke-width:0.4324;stroke-miterlimit:10;}
</style>
<path class="st0" d="M256.5-6"/>
<g>
	<linearGradient id="SVGID_1_" gradientUnits="userSpaceOnUse" x1="38.2697" y1="1.009" x2="38.2697" y2="77.5483">
		<stop  offset="0" style="stop-color:#74C3BC"/>
		<stop  offset="0.1789" style="stop-color:#55A6AE"/>
		<stop  offset="0.3925" style="stop-color:#378AA0"/>
		<stop  offset="0.6034" style="stop-color:#227597"/>
		<stop  offset="0.8082" style="stop-color:#156991"/>
		<stop  offset="1" style="stop-color:#11658F"/>
	</linearGradient>
	<polygon class="st1" points="58.4,0 58.4,30 28.8,0 18.2,0 0,0 0,78.1 18.2,78.1 18.2,48.1 47.7,78.1 58.4,78.1 76.5,78.1 76.5,0 	
		"/>
	<linearGradient id="SVGID_2_" gradientUnits="userSpaceOnUse" x1="38.4018" y1="17.4381" x2="38.4018" y2="79.3564">
		<stop  offset="0" style="stop-color:#2F3D90"/>
		<stop  offset="0.7293" style="stop-color:#3354A1"/>
		<stop  offset="1" style="stop-color:#355EA8"/>
	</linearGradient>
	<polygon class="st2" points="18.2,48.1 18.2,16.1 44.7,16.1 58.5,29.9 36.8,29.9 36.8,41.8 46,41.8 58.6,54.4 36.8,54.4 36.8,67.2 
			"/>
</g>
<g>
	<path class="st3" d="M101.6,11.9H122V16h-15.5v12.6h14.3v4h-14.3v17.1h-4.9V11.9z"/>
	<path class="st3" d="M149.5,42.4c0,2.8,0.1,5.3,0.2,7.4h-4.4l-0.3-4.4H145c-1.3,2.2-4.2,5.1-9,5.1c-4.3,0-9.4-2.4-9.4-11.9V22.6
		h4.9v15.1c0,5.2,1.6,8.7,6.1,8.7c3.3,0,5.6-2.3,6.5-4.5c0.3-0.7,0.4-1.6,0.4-2.5V22.6h4.9V42.4z"/>
	<path class="st3" d="M163.7,14.8v7.8h7.1v3.8h-7.1V41c0,3.4,1,5.3,3.7,5.3c1.3,0,2.2-0.2,2.9-0.3l0.2,3.7c-1,0.4-2.5,0.7-4.4,0.7
		c-2.3,0-4.2-0.7-5.3-2.1c-1.4-1.5-1.9-3.9-1.9-7.1V26.3h-4.2v-3.8h4.2v-6.5L163.7,14.8z"/>
	<path class="st3" d="M199.1,42.4c0,2.8,0.1,5.3,0.2,7.4h-4.4l-0.3-4.4h-0.1c-1.3,2.2-4.2,5.1-9,5.1c-4.3,0-9.4-2.4-9.4-11.9V22.6
		h4.9v15.1c0,5.2,1.6,8.7,6.1,8.7c3.3,0,5.6-2.3,6.5-4.5c0.3-0.7,0.4-1.6,0.4-2.5V22.6h4.9V42.4z"/>
	<path class="st3" d="M207.3,31.1c0-3.2-0.1-6-0.2-8.5h4.3l0.2,5.3h0.2c1.2-3.7,4.2-6,7.5-6c0.6,0,1,0.1,1.4,0.2v4.7
		c-0.5-0.1-1-0.2-1.7-0.2c-3.5,0-6,2.6-6.6,6.3c-0.1,0.7-0.2,1.5-0.2,2.3v14.5h-4.9V31.1z"/>
	<path class="st3" d="M227.9,37.1c0.1,6.7,4.4,9.4,9.3,9.4c3.5,0,5.7-0.6,7.5-1.4l0.8,3.5c-1.7,0.8-4.7,1.7-9,1.7
		c-8.4,0-13.4-5.5-13.4-13.7c0-8.2,4.8-14.7,12.8-14.7c8.9,0,11.2,7.8,11.2,12.8c0,1-0.1,1.8-0.2,2.3H227.9z M242.4,33.5
		c0.1-3.1-1.3-8-6.9-8c-5,0-7.2,4.6-7.6,8H242.4z"/>
	<path class="st4" d="M253.4,49.8V11.9h5.3l12.1,19.2c2.8,4.4,5,8.4,6.8,12.3l0.1-0.1c-0.4-5.1-0.6-9.7-0.6-15.6V11.9h4.6v37.9h-4.9
		l-12-19.2c-2.6-4.2-5.2-8.5-7.1-12.6l-0.2,0.1c0.3,4.8,0.4,9.3,0.4,15.6v16.2H253.4z"/>
	<path class="st4" d="M293,37.1c0.1,6.7,4.4,9.4,9.3,9.4c3.5,0,5.7-0.6,7.5-1.4l0.8,3.5c-1.7,0.8-4.7,1.7-9,1.7
		c-8.4,0-13.4-5.5-13.4-13.7c0-8.2,4.8-14.7,12.8-14.7c8.9,0,11.2,7.8,11.2,12.8c0,1-0.1,1.8-0.2,2.3H293z M307.5,33.5
		c0.1-3.1-1.3-8-6.9-8c-5,0-7.2,4.6-7.6,8H307.5z"/>
	<path class="st4" d="M324.3,14.8v7.8h7.1v3.8h-7.1V41c0,3.4,1,5.3,3.7,5.3c1.3,0,2.2-0.2,2.9-0.3l0.2,3.7c-1,0.4-2.5,0.7-4.4,0.7
		c-2.3,0-4.2-0.7-5.3-2.1c-1.4-1.5-1.9-3.9-1.9-7.1V26.3h-4.2v-3.8h4.2v-6.5L324.3,14.8z"/>
</g>
<g>
	<path class="st5" d="M102.6,57.2v8.3c0,3.1,1.4,4.5,3.3,4.5c2.1,0,3.4-1.4,3.4-4.5v-8.3h1.8v8.1c0,4.3-2.3,6.1-5.3,6.1
		c-2.9,0-5-1.6-5-6v-8.2H102.6z"/>
	<path class="st5" d="M120.8,71.2v-14h2l4.5,7.1c1,1.6,1.8,3.1,2.5,4.5l0,0c-0.2-1.9-0.2-3.6-0.2-5.7v-5.8h1.7v14h-1.8l-4.4-7.1
		c-1-1.6-1.9-3.2-2.6-4.7l-0.1,0c0.1,1.8,0.1,3.4,0.1,5.8v6H120.8z"/>
	<path class="st5" d="M141,57.2h1.8v12.5h6v1.5H141V57.2z"/>
	<path class="st5" d="M159.2,57.2v14h-1.8v-14H159.2z"/>
	<path class="st5" d="M180.7,65c-0.1-1.9-0.2-4.3-0.2-6h-0.1c-0.5,1.6-1.1,3.4-1.8,5.3l-2.5,6.8h-1.4l-2.3-6.7
		c-0.7-2-1.2-3.8-1.6-5.4h0c0,1.7-0.1,4.1-0.3,6.2l-0.4,6h-1.7l1-14h2.3l2.4,6.8c0.6,1.7,1.1,3.3,1.4,4.7h0.1
		c0.4-1.4,0.9-2.9,1.5-4.7l2.5-6.8h2.3l0.9,14h-1.8L180.7,65z"/>
	<path class="st5" d="M194,57.2v14h-1.8v-14H194z"/>
	<path class="st5" d="M206.4,58.7h-4.3v-1.5h10.3v1.5h-4.3v12.4h-1.8V58.7z"/>
	<path class="st5" d="M227.9,64.6h-5.4v5h6.1v1.5h-7.9v-14h7.5v1.5h-5.7v4.4h5.4V64.6z"/>
	<path class="st5" d="M237.5,57.4c1.1-0.2,2.4-0.3,3.8-0.3c2.6,0,4.4,0.6,5.7,1.7c1.2,1.1,2,2.8,2,5c0,2.3-0.7,4.1-2,5.4
		c-1.3,1.3-3.5,2-6.2,2c-1.3,0-2.4-0.1-3.3-0.2V57.4z M239.3,69.7c0.5,0.1,1.1,0.1,1.8,0.1c3.9,0,6-2.2,6-5.9c0-3.3-1.8-5.4-5.7-5.4
		c-0.9,0-1.6,0.1-2.1,0.2V69.7z"/>
	<path class="st5" d="M268.9,57.2h1.8v12.5h6v1.5h-7.8V57.2z"/>
	<path class="st5" d="M287.1,57.2v14h-1.8v-14H287.1z"/>
	<path class="st5" d="M296.8,57.2h7.5v1.5h-5.7v4.6h5.3v1.5h-5.3v6.3h-1.8V57.2z"/>
	<path class="st5" d="M320.8,64.6h-5.4v5h6.1v1.5h-7.9v-14h7.5v1.5h-5.7v4.4h5.4V64.6z"/>
	<path class="st5" d="M329.9,70.1c0-0.7,0.5-1.3,1.2-1.3c0.7,0,1.2,0.5,1.2,1.3c0,0.7-0.5,1.3-1.2,1.3
		C330.4,71.4,329.9,70.8,329.9,70.1z M330.4,67.1l-0.3-10h2l-0.3,10H330.4z"/>
</g>
<g>
	<path class="st6" d="M339.7,13.9H338v-0.6h4.2v0.6h-1.8V19h-0.7V13.9z"/>
	<path class="st6" d="M347.7,16.4c0-0.8-0.1-1.8-0.1-2.5h0c-0.2,0.7-0.4,1.4-0.7,2.2l-1,2.8h-0.6l-0.9-2.7c-0.3-0.8-0.5-1.5-0.7-2.2
		h0c0,0.7-0.1,1.7-0.1,2.5l-0.2,2.5h-0.7l0.4-5.7h0.9l1,2.8c0.2,0.7,0.4,1.3,0.6,1.9h0c0.1-0.6,0.3-1.2,0.6-1.9l1-2.8h0.9l0.4,5.7
		h-0.7L347.7,16.4z"/>
</g>
</svg>
